<svg xmlns="http://www.w3.org/2000/svg" viewBox="0 0 100 100" fill="none">
  <g opacity="0.18">
    <path d="M15 15 L15 85 M15 50 L45 25 L75 15 M15 50 L45 75 L75 85" stroke="currentColor" stroke-width="8" stroke-linecap="round" stroke-linejoin="round" transform="translate(-2 -2)"/>
  </g>
  <path d="M20 15 L20 85" stroke="currentColor" stroke-width="10" stroke-linecap="round"/>
  <path d="M20 50 L50 25 L80 15" stroke="currentColor" stroke-width="10" stroke-linecap="round" stroke-linejoin="round"/>
  <path d="M20 50 L50 75 L80 85" stroke="currentColor" stroke-width="10" stroke-linecap="round" stroke-linejoin="round"/>
  <circle cx="20" cy="50" r="8" fill="currentColor"/>
  <circle cx="20" cy="50" r="12" fill="currentColor" opacity="0.25"/>
  <circle cx="80" cy="15" r="6" fill="currentColor" opacity="0.85"/>
  <circle cx="80" cy="85" r="6" fill="currentColor" opacity="0.85"/>
  <g stroke="currentColor" stroke-width="1" opacity="0.12">
    <line x1="10" y1="30" x2="90" y2="30"/>
    <line x1="10" y1="45" x2="90" y2="45"/>
    <line x1="10" y1="55" x2="90" y2="55"/>
    <line x1="10" y1="70" x2="90" y2="70"/>
  </g>
</svg>